<?xml version="1.0" encoding="utf-8"?>
<!-- Generator: Adobe Illustrator 22.1.0, SVG Export Plug-In . SVG Version: 6.00 Build 0)  -->
<svg version="1.1" id="Layer_1" xmlns="http://www.w3.org/2000/svg" xmlns:xlink="http://www.w3.org/1999/xlink" x="0px" y="0px"
	 viewBox="0 0 517.6 518.8" style="enable-background:new 0 0 517.6 518.8;" xml:space="preserve">
<path d="M435.8,0H197.1v320.3h320.3v-237C517.6,38.3,480.8,0,435.8,0z"/>
<path d="M123.8,0h-40C38.8,0,0.3,36.6,0.3,83.5v40h123.5V0z"/>
<rect x="0.3" y="198.5" width="123.5" height="123.5"/>
<path d="M394.1,518.8h40c45,0,83.5-36.6,83.5-83.5v-39.9H394.1L394.1,518.8L394.1,518.8z"/>
<rect x="197.1" y="395.4" width="123.5" height="123.5"/>
<path d="M0.3,395.4v40c0,45,36.6,83.5,83.5,83.5h40V395.4H0.3z"/>
</svg>
