<svg xmlns="http://www.w3.org/2000/svg" viewBox="0 0 226.77 69.35"><title>Kakao Logo</title><g id="Layer_2" data-name="Layer 2"><g id="Layer_1" data-name="Layer 1"><g id="kakao_CI_BI" data-name="kakao CI/BI"><path id="_compound_path" data-name="&lt;compound path&gt;" d="M7.91,68.15H0V1.72L7.91,0ZM29.05,19.94l6.19,4.47L20,43.49,37.64,64.63l-6.1,4.72L10.74,43.91Z"/><path id="compound_path_2" data-name="&lt;compound path&gt;" d="M44.64,55.52q0-7.14,4.77-10.87t13.88-3.74H72.4v-3Q72.4,27,62.77,27a26.1,26.1,0,0,0-6.48.86A37.29,37.29,0,0,0,50.06,30l-2.32-5.58a31.89,31.89,0,0,1,7.6-3.05,31.06,31.06,0,0,1,7.95-1.08Q80,20.28,80,38.07V68.15H74.12L73.18,63a28.55,28.55,0,0,1-7.52,4.39,21.12,21.12,0,0,1-7.61,1.54q-6.27,0-9.84-3.56T44.64,55.52Zm14.84,7a14,14,0,0,0,3.38-.43A26.35,26.35,0,0,0,66.37,61a18.51,18.51,0,0,0,3.29-1.68,19.55,19.55,0,0,0,2.74-2.1v-11H64.18q-6.24,0-9.11,2.14t-2.86,6.79Q52.21,62.57,59.48,62.56Z"/><path id="_compound_path_3" data-name="&lt;compound path&gt;" d="M101.94,68.15H94V1.72L101.94,0Zm21.14-48.21,6.18,4.47-15.2,19.08,17.61,21.14-6.1,4.72L104.78,43.91Z"/><path id="_compound_path_4" data-name="&lt;compound path&gt;" d="M138.67,55.52q0-7.14,4.77-10.87t13.88-3.74h9.11v-3q0-10.92-9.62-10.91a26.05,26.05,0,0,0-6.49.86A37.29,37.29,0,0,0,144.09,30l-2.32-5.58a31.89,31.89,0,0,1,7.6-3.05,31,31,0,0,1,7.95-1.08Q174,20.28,174,38.07V68.15h-5.84l-1-5.16a28.39,28.39,0,0,1-7.52,4.39,21,21,0,0,1-7.6,1.54c-4.19,0-7.46-1.19-9.84-3.56S138.67,59.7,138.67,55.52Zm14.84,7a14,14,0,0,0,3.38-.43A26.35,26.35,0,0,0,160.4,61a18.51,18.51,0,0,0,3.29-1.68,19.55,19.55,0,0,0,2.74-2.1v-11h-8.21q-6.25,0-9.12,2.14t-2.86,6.79Q146.24,62.57,153.51,62.56Z"/><path id="_compound_path_5" data-name="&lt;compound path&gt;" d="M205.8,20.37q9.8,0,15.38,6.36T226.77,45q0,11.69-5.54,18T205.8,69.18q-9.8,0-15.38-6.27t-5.59-18q0-11.87,5.63-18.22T205.8,20.37Zm0,6.36a10.93,10.93,0,0,0-9.49,4.64Q193,36,193,45t3.31,13.36a11,11,0,0,0,9.49,4.51q6.27,0,9.59-4.51T218.69,45q0-8.94-3.3-13.58T205.8,26.73Z"/></g></g></g></svg>
