<?xml version="1.0" standalone="no"?>
<!DOCTYPE svg PUBLIC "-//W3C//DTD SVG 20010904//EN"
 "http://www.w3.org/TR/2001/REC-SVG-20010904/DTD/svg10.dtd">
<svg version="1.0" xmlns="http://www.w3.org/2000/svg"
 width="150.000000pt" height="81.000000pt" viewBox="0 0 150.000000 81.000000"
 preserveAspectRatio="xMidYMid meet">
<metadata>
Created by potrace 1.15, written by Peter Selinger 2001-2017
</metadata>
<g transform="translate(0.000000,81.000000) scale(0.100000,-0.100000)"
fill="#000000" stroke="none">
<path d="M80 799 c0 -4 13 -21 29 -38 20 -21 71 -137 170 -386 77 -195 141
-360 141 -365 0 -6 6 -10 13 -10 14 0 117 200 117 227 0 32 -147 421 -186 493
-36 67 -53 74 -177 80 -59 3 -107 2 -107 -1z"/>
<path d="M1005 723 c-65 -120 -67 -146 -17 -274 22 -57 61 -158 87 -224 80
-205 91 -215 240 -215 95 0 109 6 79 31 -26 21 -57 91 -194 438 -73 182 -135
331 -139 331 -4 0 -29 -39 -56 -87z"/>
<path d="M450 796 c0 -2 13 -17 28 -34 19 -20 67 -129 151 -343 68 -173 134
-330 147 -350 34 -50 60 -59 175 -59 l100 0 -32 38 c-29 35 -82 158 -234 552
-36 93 -58 135 -86 163 l-37 37 -106 0 c-58 0 -106 -2 -106 -4z"/>
<path d="M1265 738 c26 -35 53 -86 63 -120 9 -32 20 -58 23 -58 3 0 12 19 19
43 20 67 46 111 89 150 23 20 41 39 41 42 0 3 -63 5 -140 5 l-140 0 45 -62z"/>
<path d="M130 225 c0 -34 -62 -145 -95 -172 -19 -16 -35 -31 -35 -35 0 -5 61
-8 135 -8 74 0 135 3 135 6 0 3 -15 24 -34 47 -18 23 -45 71 -59 107 -25 63
-47 89 -47 55z"/>
</g>
</svg>
